<?xml version="1.0" encoding="iso-8859-1"?>

<!-- Generator: Adobe Illustrator 23.0.0, SVG Export Plug-In . SVG Version: 6.00 Build 0)  -->

<svg version="1.1" id="Capa_1" xmlns="http://www.w3.org/2000/svg" xmlns:xlink="http://www.w3.org/1999/xlink" x="0px" y="0px"

	 viewBox="-49 141 512 512" style="enable-background:new -49 141 512 512;" xml:space="preserve">

<g>

	<path d="M211.043,252.99c-6.549-2.978-16.665-5.952-32.729-5.952c-13.094,0-19.042,10.116-19.042,31.538v50.58h54.147v77.352

		h-54.147v142.22h35.702v77.95H17.65v-77.95h23.803v-142.22H17.057v-77.352h24.396v-50.58c0-33.919,10.709-108.895,117.82-108.895

		c30.941,0,71.998,7.142,87.472,14.877L211.043,252.99z"/>

	<path d="M234.817,626.678v-77.95h24.989v-142.22h-24.989v-77.352h138.048v219.573h28.564v77.95H234.817z M315.741,181.581

		c41.061,0,65.457,33.326,65.457,60.696c0,32.729-23.206,60.102-65.457,60.102c-37.486,0-64.263-31.538-64.263-60.102

		C251.478,214.907,274.091,181.581,315.741,181.581z"/>

</g>

</svg>

